<svg width="34" height="54" viewBox="0 0 34 54" fill="none" xmlns="http://www.w3.org/2000/svg">
<path d="M13 17.5C13 14.7318 14.1434 11.8004 16.0812 8.90273C17.878 6.21609 20.3182 3.61833 23.022 1.29171C24.8547 2.80956 27.2075 5.32823 29.1786 8.16715C31.403 11.3709 33 14.782 33 17.5C33 23.0228 28.5228 27.5 23 27.5C17.4772 27.5 13 23.0228 13 17.5Z" stroke="black" stroke-width="2"/>
<path d="M0.999999 42.5C0.999999 39.7318 2.14339 36.8004 4.08124 33.9027C5.87796 31.2161 8.31823 28.6183 11.022 26.2917C12.8547 27.8096 15.2075 30.3282 17.1786 33.1671C19.403 36.3709 21 39.782 21 42.5C21 48.0228 16.5228 52.5 11 52.5C5.47715 52.5 1 48.0228 0.999999 42.5Z" stroke="black" stroke-width="2"/>
</svg>
