<svg width="12" height="56" viewBox="0 0 12 56" fill="none" xmlns="http://www.w3.org/2000/svg">
<path d="M8 47.5C8.67127 41.786 11.011 28.2723 11 25.929C11 0.11862 8 2.5 6 2C3.5 2.5 1 0.11862 1 25.929C1.33333 32.6194 3.7 47.5 4.5 47.5" stroke="black" stroke-width="2"/>
<path d="M8 46C8 48.7614 8.76142 55 6 55C3.23857 55 4 48.7614 4 46" stroke="black" stroke-width="2"/>
<path d="M6.00012 41.5L6.00012 3" stroke="black"/>
<path d="M4 5H8" stroke="black" stroke-width="0.5"/>
<path d="M4 21H8" stroke="black" stroke-width="0.5"/>
<path d="M4 37H8" stroke="black" stroke-width="0.5"/>
<path d="M4 35H8" stroke="black" stroke-width="0.5"/>
<path d="M4 33H8" stroke="black" stroke-width="0.5"/>
<path d="M4 31H8" stroke="black" stroke-width="0.5"/>
<path d="M4 29H8" stroke="black" stroke-width="0.5"/>
<path d="M4 27H8" stroke="black" stroke-width="0.5"/>
<path d="M4 25H8" stroke="black" stroke-width="0.5"/>
<path d="M4 23H8" stroke="black" stroke-width="0.5"/>
<path d="M4 19H8" stroke="black" stroke-width="0.5"/>
<path d="M4 17H8" stroke="black" stroke-width="0.5"/>
<path d="M4 15H8" stroke="black" stroke-width="0.5"/>
<path d="M4 13H8" stroke="black" stroke-width="0.5"/>
<path d="M4 11H8" stroke="black" stroke-width="0.5"/>
<path d="M4 9H8" stroke="black" stroke-width="0.5"/>
<path d="M4 7H8" stroke="black" stroke-width="0.5"/>
</svg>
