<svg width="16" height="30" viewBox="0 0 16 30" fill="none" xmlns="http://www.w3.org/2000/svg">
<path d="M8.14645 29.3536C8.34171 29.5488 8.65829 29.5488 8.85355 29.3536L12.0355 26.1716C12.2308 25.9763 12.2308 25.6597 12.0355 25.4645C11.8403 25.2692 11.5237 25.2692 11.3284 25.4645L8.5 28.2929L5.67157 25.4645C5.47631 25.2692 5.15973 25.2692 4.96447 25.4645C4.76921 25.6597 4.76921 25.9763 4.96447 26.1716L8.14645 29.3536ZM8 2.18557e-08L8 29L9 29L9 -2.18557e-08L8 2.18557e-08Z" fill="black"/>
<path d="M1 21.5L8.36409 28.8641M8.36409 28.8641L8.5 29L15.5 22L8.36409 28.8641Z" stroke="black"/>
</svg>
